<?xml version="1.0" encoding="UTF-8" standalone="no"?>
<svg width="150px" height="150px" viewBox="0 0 150 150" version="1.1" xmlns="http://www.w3.org/2000/svg" xmlns:xlink="http://www.w3.org/1999/xlink">
    <!-- Generator: Sketch 39.1 (31720) - http://www.bohemiancoding.com/sketch -->
    <title>Group</title>
    <desc>Created with Sketch.</desc>
    <defs>
        <polygon id="path-1" points="29.8031309 62.0901639 0 62.0901639 0 0 29.8031309 0 59.6062617 0 59.6062617 62.0901639 29.8031309 62.0901639"></polygon>
    </defs>
    <g id="Page-1" stroke="none" stroke-width="1" fill="none" fill-rule="evenodd">
        <g id="Wishlist" transform="translate(-597.000000, -995.000000)">
            <g id="Drop" transform="translate(0.000000, 937.000000)">
                <g id="Group" transform="translate(597.000000, 58.000000)">
                    <circle id="Oval-7" fill="#FFFFFF" cx="75" cy="75" r="75"></circle>
                    <g id="Page-1" transform="translate(45.491803, 44.262295)">
                        <mask id="mask-2" fill="white">
                            <use xlink:href="#path-1"></use>
                        </mask>
                        <g id="Clip-2"></g>
                        <path d="M18.2423858,40.654274 L18.3310861,40.2994731 L20.9920931,35.4800937 L43.0193179,35.4800937 C45.2368238,35.4800937 47.1882289,34.2678571 48.1934982,32.434719 L59.6062617,11.7084309 L54.4616481,8.87002342 L54.4320814,8.87002342 L51.1826961,14.7833724 L43.0193179,29.5667447 L22.2634631,29.5667447 L21.8790954,28.7684426 L15.2561446,14.7833724 L12.4473039,8.87002342 L9.66802986,2.95667447 L-0.000295667447,2.95667447 L-0.000295667447,8.87002342 L5.91305328,8.87002342 L16.5570814,31.3111827 L12.5655708,38.5550351 C12.0925029,39.382904 11.8264022,40.3586066 11.8264022,41.3934426 C11.8264022,44.6457845 14.4874093,47.3067916 17.7397512,47.3067916 L53.2198448,47.3067916 L53.2198448,41.3934426 L18.9815544,41.3934426 C18.5971868,41.3934426 18.2423858,41.0711651 18.2423858,40.654274 L18.2423858,40.654274 Z M47.3064959,50.263466 C44.054154,50.263466 41.4227137,52.9244731 41.4227137,56.176815 C41.4227137,59.4291569 44.054154,62.0901639 47.3064959,62.0901639 C50.5588378,62.0901639 53.2198448,59.4291569 53.2198448,56.176815 C53.2198448,52.9244731 50.5588378,50.263466 47.3064959,50.263466 L47.3064959,50.263466 Z M17.7397512,50.263466 C14.4874093,50.263466 11.855969,52.9244731 11.855969,56.176815 C11.855969,59.4291569 14.4874093,62.0901639 17.7397512,62.0901639 C20.9920931,62.0901639 23.6531001,59.4291569 23.6531001,56.176815 C23.6531001,52.9244731 20.9920931,50.263466 17.7397512,50.263466 L17.7397512,50.263466 Z M29.5664491,23.6533958 L35.479798,23.6533958 L35.479798,14.7833724 L44.3498214,14.7833724 L44.3498214,8.87002342 L35.479798,8.87002342 L35.479798,0 L29.5664491,0 L29.5664491,8.87002342 L20.6964256,8.87002342 L20.6964256,14.7833724 L29.5664491,14.7833724 L29.5664491,23.6533958 Z" id="Fill-1" fill="#D1D6DA" mask="url(#mask-2)"></path>
                    </g>
                </g>
            </g>
        </g>
    </g>
</svg>