<?xml version="1.0" encoding="UTF-8" standalone="no"?>
<svg width="297px" height="243px" viewBox="0 0 297 243" version="1.1" xmlns="http://www.w3.org/2000/svg" xmlns:xlink="http://www.w3.org/1999/xlink">
    <!-- Generator: Sketch 39.1 (31720) - http://www.bohemiancoding.com/sketch -->
    <title>Berlin</title>
    <desc>Created with Sketch.</desc>
    <defs>
        <path d="M246.921,242.684 L246.251,239.669 L245.335,239.92 L244.418,241.253 L243.501,240.42 L244.668,238.004 L245.251,238.004 L246.501,237.086 L246.501,234.337 L245.918,231.42 L247.001,229.086 L249.835,225.836 L249.251,221.92 L250.585,220.753 L251.001,219.169 L250.001,219.169 L249.501,220.419 L248.251,220.254 L247.085,217.754 L246.668,221.837 L246.668,222.504 L245.418,222.504 L245.668,221.92 L246.168,217.253 L241.585,218.169 L239.835,214.504 L230.917,219.752 L229.917,219.752 L229.583,216.17 C227.916,211.587 225.083,210.837 225.083,210.837 L224,206.002 L223.5,205.252 L211.082,210.253 L198.832,209.502 C197.665,206.335 199.999,200.42 199.999,200.42 L195.582,203.002 L189.749,199.587 L173.499,203.669 C173.832,202.67 168.666,187.087 168.666,187.087 C168.666,187.087 169.999,188.67 168.666,186.837 C167.333,185.003 164.083,186.336 164.083,186.336 C156.167,191.086 147.666,193.336 147.666,193.336 C146.666,193.503 146.416,195.171 146.416,195.171 L150.75,210.921 L147.166,218.42 L133.333,216.92 L132.916,209.503 L125.166,209.671 L125.5,204.92 C124,204.92 113.333,195.586 113.333,195.586 L112.5,192.753 L99.833,201.254 L92.583,190.921 L93.42,189.59 L91.753,189.923 L84.42,196.589 C83.254,198.423 78.416,197.755 78.416,197.755 L75.919,196.589 L72.586,197.089 L71.419,196.423 L71.419,192.589 L70.42,185.255 L61.086,186.09 L51.42,189.923 L48.42,189.755 L31.42,199.089 L31.086,203.423 L37.086,203.255 L37.086,204.09 L34.586,205.255 L31.086,205.255 L26.753,204.09 L24.92,203.756 C22.254,204.089 19.92,208.256 19.92,208.256 L20.92,209.59 L19.92,210.755 L17.086,208.089 L17.92,208.089 L18.92,208.089 L21.086,203.09 L21.753,203.09 L22.42,203.09 L21.42,201.256 L22.42,199.422 C20.254,199.59 16.92,203.09 16.92,203.09 L13.253,198.923 L11.086,198.256 L10.586,196.423 L9.253,194.09 L10.753,194.09 L10.253,192.422 L8.753,191.59 L8.753,194.09 L7.753,193.922 C6.753,193.756 5.586,190.59 5.586,190.59 L4.086,191.089 L4.086,193.922 L2.253,191.59 L0.92,191.59 L0.92,188.923 L2.086,187.09 L2.086,185.589 C3.919,186.09 4.753,183.089 4.753,183.089 L5.42,181.755 L7.253,183.089 L10.753,179.755 L10.753,177.09 C13.086,175.757 13.753,173.755 13.753,173.755 L15.253,173.755 L15.42,171.755 L14.753,170.755 L13.753,168.756 C11.586,168.422 9.42,163.422 9.42,163.422 C10.587,163.422 10.753,158.255 10.753,158.255 L12.086,154.923 L10.753,152.423 L12.586,150.922 L13.75,147.589 L13.75,146.422 L13.75,145.089 L17.419,143.423 L35.583,121.419 L25.75,115.586 L24.417,113.752 L13.75,116.253 L13.75,105.587 L16.416,98.42 L16.416,94.92 L19.583,87.587 L22.083,89.92 L25.25,89.92 C27.084,89.253 25.916,84.253 25.916,84.253 L27.416,80.586 L28.25,76.753 C29.084,76.086 29.25,71.92 29.25,71.92 L27.416,67.253 L22.916,69.42 L19.75,70.087 L19.083,67.753 L17.583,67.753 L18.583,65.087 L21.416,65.087 L23.583,63.586 L27.416,62.253 L30.083,57.587 L34.25,56.253 L35.416,56.753 L38.416,58.419 L43.25,60.254 L46.916,63.253 L50.916,64.253 L52.583,65.087 L53.083,63.42 L57.583,65.087 L57.75,60.587 L52.916,55.253 L50.916,53.253 L50.916,50.253 C55.082,51.42 58.25,41.753 58.25,41.753 L59.583,39.92 L59.583,34.919 L61.916,35.919 L68.583,34.919 L69.583,35.919 L76.416,34.919 L77.999,35.919 L78.416,29.253 L77.583,27.253 L77.583,25.586 C83.548,27.332 86.965,25.291 86.965,25.291 L87.422,16.958 L85.923,16.166 L86.548,10.875 C92.298,12.959 97.465,12.083 97.465,12.083 L98.465,13.583 L94.964,15.917 L94.631,17.375 L95.631,19.209 C98.131,24.584 96.923,29 96.923,29 L98.339,31.708 L98.548,34 L95.507,35.417 L100.215,35.125 L102.673,36.042 L105.422,36.292 L110.757,38.875 C112.341,37.709 117.257,38.5 117.257,38.5 L118.299,38.001 L119.507,38.959 L122.09,37.167 L123.257,36.876 L124.174,36.459 L124.632,36.417 L125.549,35.584 L127.549,34.875 L127.799,34.501 L127.799,33.334 L127.591,32.417 L128.466,30.667 L129.716,30.417 L130.631,30.084 L130.716,28.959 L131.05,28.959 C135.217,28.75 134.008,24.75 134.008,24.75 L135.091,23.126 L135.091,21.792 L135.841,21.792 L135.841,20.667 L136.883,20.708 L137.341,20.001 L141.716,24.625 L143.966,23.625 L144.883,24.668 L145.216,26.084 L148.757,29.584 L150.841,28.25 L153.3,28.25 L153.508,27.71 L154.258,25.334 L156.924,19.584 L159.799,18.71 L161.883,19.918 L165.008,20.335 L167.842,17.711 L169.383,17.585 L171.175,15.377 L171.133,14.252 L166.091,13.46 L161.425,9.252 L164.507,5.085 L168.092,5.919 L172.133,0.918 L172.592,1.46 L173.842,0.918 C170.258,5.752 172.091,7.169 172.091,7.169 L177.55,3.919 L176.297,12.045 L178.922,15.628 L180.63,16.586 L188.378,22.461 C188.378,21.961 191.295,20.879 191.295,20.879 L191.92,22.586 L192.795,22.586 L192.795,24.378 L190.587,33.879 C189.129,34.087 185.254,36.711 185.254,36.711 L184.962,41.379 C181.837,44.795 181.295,51.754 181.295,51.754 L182.504,51.754 L186.336,61.087 C190.836,60.212 195.335,61.171 195.335,61.171 C211.668,66.587 213,74.627 213,74.627 C213.792,75.253 215.875,74.586 215.875,74.586 L217.083,75.795 L216.875,76.378 L218.75,76.337 L219.625,78.295 L219.583,81.295 L220.041,84.211 L221.249,86.877 C221.665,87.92 221.332,92.087 221.332,92.087 L235.457,96.295 L239.29,96.461 L241.29,96.878 L243.54,97.669 C243.623,99.545 241.415,101.211 241.415,101.211 L238.249,101.169 C237.166,101.169 238.665,106.253 238.665,106.253 C238.831,105.503 244.499,105.837 244.499,105.837 L245.832,106.336 L247.582,106.586 L252.415,107.087 L252.915,109.337 L249.832,112.004 L246.249,114.837 C241.583,116.92 239.124,127.545 239.124,127.545 L237.561,132.357 L238.062,132.607 L239.999,133.732 L233.437,142.357 L233.687,146.232 L234.124,146.483 L231.999,149.544 L232.811,149.92 L234.874,149.17 L236.436,149.858 L236.436,152.67 L237.062,151.107 L237.999,150.92 L238.187,147.357 L239.749,147.545 L241.249,146.169 L243.374,145.732 L246.311,143.357 L248.624,143.732 L251.061,144.982 L254.686,147.545 L255.561,147.545 C257.124,146.67 257.811,147.608 257.811,147.608 L261.874,150.42 L262.749,151.607 C262.812,152.42 265.374,153.732 265.374,153.732 C269.812,153.357 270.186,155.857 270.186,155.857 C270.687,156.419 270.374,159.045 270.374,159.045 L270.374,161.045 L273.062,161.232 L273.561,160.607 L273.499,157.419 L272.812,157.232 L272.624,155.545 L272.812,154.232 L271.874,153.482 L270.874,151.107 L271.374,151.045 L277.124,155.169 L277.936,155.169 L278.749,155.795 C278.752,155.87 278.759,155.949 278.77,156.028 C279.191,159.019 285.061,164.357 285.061,164.357 L286.374,163.982 L290.561,165.732 L291.374,165.045 C294.499,165.545 296.186,167.732 296.186,167.732 L295.749,169.357 L296.186,169.794 L296.186,171.044 L293.561,171.044 L291.062,173.357 L290.374,176.92 L288.905,176.982 L288.655,180.107 L289.905,180.7 L289.905,180.951 L289.499,181.607 L287.905,181.795 C283.499,181.263 282.374,184.576 282.374,184.576 C281.999,184.888 282.999,188.732 282.999,188.732 L284.249,187.764 L284.749,187.17 L285.405,187.388 L284.624,189.7 L285.405,190.857 L286.124,192.482 L288.405,195.826 L286.687,197.388 L286.53,199.825 L284.905,201.357 L282.749,201.357 L281.468,202.326 C280.53,201.482 279.374,201.95 279.374,201.95 L278.687,201.107 L275.437,204.42 L274.718,204.451 L274.405,203.419 L272.812,203.138 C270.624,200.888 268.249,203.107 268.249,203.107 C267.499,203.482 267.467,204.669 267.467,204.669 L266.53,205.325 C264.28,205.357 263.03,207.201 263.03,207.201 C261.28,207.482 260.874,210.701 260.874,210.701 C258.968,211.138 257.561,213.983 257.561,213.983 L252.405,215.295 L252.093,217.92 C252.436,218.576 254.749,218.357 254.749,218.357 L256.531,217.076 L259.343,217.014 L261.624,215.357 L262.655,213.983 L265.217,212.263 L265.187,212.826 L265.718,213.2 L267.249,213.514 L268.53,214.482 L270.967,214.325 L270.061,217.513 L271.999,217.825 L267.592,224.794 L267.187,224.545 L265.78,224.889 L263.937,223.17 C262.937,222.888 261.967,223.295 261.967,223.295 L258.53,225.42 L258.53,226.732 L257.781,226.732 C256.936,227.513 256.501,229.92 256.501,229.92 L256.501,231.586 L255.585,231.92 L254.751,234.42 L253.751,234.17 L252.168,236.254 C252.501,238.921 250.335,240.336 250.335,240.336 L249.160694,242.684 L246.921,242.684 L246.921,242.684 Z" id="path-1"></path>
    </defs>
    <g id="Page-1" stroke="none" stroke-width="1" fill="none" fill-rule="evenodd">
        <g id="Cities" transform="translate(-578.000000, -487.000000)">
            <g transform="translate(256.000000, 465.000000)" id="Berlin">
                <g transform="translate(322.000000, 22.000000)">
                    <g id="Page-1">
                        <mask id="mask-2" fill="white">
                            <use xlink:href="#path-1"></use>
                        </mask>
                        <g id="Clip-2"></g>
                        <polygon id="Fill-1" fill="#DADADA" mask="url(#mask-2)" points="-8.99 2.098 306.198 2.098 306.198 0.495 -8.99 0.495"></polygon>
                        <polygon id="Fill-3" fill="#DADADA" mask="url(#mask-2)" points="-8.99 6.043 306.198 6.043 306.198 4.44 -8.99 4.44"></polygon>
                        <polygon id="Fill-4" fill="#DADADA" mask="url(#mask-2)" points="-8.99 9.986 306.198 9.986 306.198 8.383 -8.99 8.383"></polygon>
                        <polygon id="Fill-5" fill="#DADADA" mask="url(#mask-2)" points="-8.99 13.93 306.198 13.93 306.198 12.327 -8.99 12.327"></polygon>
                        <polygon id="Fill-6" fill="#DADADA" mask="url(#mask-2)" points="-8.99 17.875 306.198 17.875 306.198 16.272 -8.99 16.272"></polygon>
                        <polygon id="Fill-7" fill="#DADADA" mask="url(#mask-2)" points="-8.99 21.818 306.198 21.818 306.198 20.215 -8.99 20.215"></polygon>
                        <polygon id="Fill-8" fill="#DADADA" mask="url(#mask-2)" points="-8.99 25.762 306.198 25.762 306.198 24.159 -8.99 24.159"></polygon>
                        <polygon id="Fill-9" fill="#DADADA" mask="url(#mask-2)" points="-8.99 29.707 306.198 29.707 306.198 28.104 -8.99 28.104"></polygon>
                        <polygon id="Fill-10" fill="#DADADA" mask="url(#mask-2)" points="-8.99 33.651 306.198 33.651 306.198 32.048 -8.99 32.048"></polygon>
                        <polygon id="Fill-11" fill="#DADADA" mask="url(#mask-2)" points="-8.99 37.595 306.198 37.595 306.198 35.992 -8.99 35.992"></polygon>
                        <polygon id="Fill-12" fill="#DADADA" mask="url(#mask-2)" points="-8.99 41.539 306.198 41.539 306.198 39.936 -8.99 39.936"></polygon>
                        <polygon id="Fill-13" fill="#DADADA" mask="url(#mask-2)" points="-8.99 45.483 306.198 45.483 306.198 43.88 -8.99 43.88"></polygon>
                        <polygon id="Fill-14" fill="#DADADA" mask="url(#mask-2)" points="-8.99 49.427 306.198 49.427 306.198 47.824 -8.99 47.824"></polygon>
                        <polygon id="Fill-15" fill="#DADADA" mask="url(#mask-2)" points="-8.99 53.371 306.198 53.371 306.198 51.768 -8.99 51.768"></polygon>
                        <polygon id="Fill-16" fill="#DADADA" mask="url(#mask-2)" points="-8.99 57.315 306.198 57.315 306.198 55.712 -8.99 55.712"></polygon>
                        <polygon id="Fill-17" fill="#DADADA" mask="url(#mask-2)" points="-8.99 61.259 306.198 61.259 306.198 59.656 -8.99 59.656"></polygon>
                        <polygon id="Fill-18" fill="#DADADA" mask="url(#mask-2)" points="-8.99 65.203 306.198 65.203 306.198 63.6 -8.99 63.6"></polygon>
                        <polygon id="Fill-19" fill="#DADADA" mask="url(#mask-2)" points="-8.99 69.147 306.198 69.147 306.198 67.544 -8.99 67.544"></polygon>
                        <polygon id="Fill-20" fill="#DADADA" mask="url(#mask-2)" points="-8.99 73.091 306.198 73.091 306.198 71.488 -8.99 71.488"></polygon>
                        <polygon id="Fill-21" fill="#DADADA" mask="url(#mask-2)" points="-8.99 77.035 306.198 77.035 306.198 75.432 -8.99 75.432"></polygon>
                        <polygon id="Fill-22" fill="#DADADA" mask="url(#mask-2)" points="-8.99 80.979 306.198 80.979 306.198 79.376 -8.99 79.376"></polygon>
                        <polygon id="Fill-23" fill="#DADADA" mask="url(#mask-2)" points="-8.99 84.923 306.198 84.923 306.198 83.32 -8.99 83.32"></polygon>
                        <polygon id="Fill-24" fill="#DADADA" mask="url(#mask-2)" points="-8.99 88.867 306.198 88.867 306.198 87.264 -8.99 87.264"></polygon>
                        <polygon id="Fill-25" fill="#DADADA" mask="url(#mask-2)" points="-8.99 92.811 306.198 92.811 306.198 91.208 -8.99 91.208"></polygon>
                        <polygon id="Fill-26" fill="#DADADA" mask="url(#mask-2)" points="-8.99 96.755 306.198 96.755 306.198 95.152 -8.99 95.152"></polygon>
                        <polygon id="Fill-27" fill="#DADADA" mask="url(#mask-2)" points="-8.99 100.699 306.198 100.699 306.198 99.096 -8.99 99.096"></polygon>
                        <polygon id="Fill-28" fill="#DADADA" mask="url(#mask-2)" points="-8.99 104.643 306.198 104.643 306.198 103.04 -8.99 103.04"></polygon>
                        <polygon id="Fill-29" fill="#DADADA" mask="url(#mask-2)" points="-8.99 108.587 306.198 108.587 306.198 106.984 -8.99 106.984"></polygon>
                        <polygon id="Fill-30" fill="#DADADA" mask="url(#mask-2)" points="-8.99 112.531 306.198 112.531 306.198 110.928 -8.99 110.928"></polygon>
                        <polygon id="Fill-31" fill="#DADADA" mask="url(#mask-2)" points="-8.99 116.475 306.198 116.475 306.198 114.872 -8.99 114.872"></polygon>
                        <polygon id="Fill-32" fill="#DADADA" mask="url(#mask-2)" points="-8.99 120.42 306.198 120.42 306.198 118.816 -8.99 118.816"></polygon>
                        <polygon id="Fill-33" fill="#DADADA" mask="url(#mask-2)" points="-8.99 124.363 306.198 124.363 306.198 122.76 -8.99 122.76"></polygon>
                        <polygon id="Fill-34" fill="#DADADA" mask="url(#mask-2)" points="-8.99 128.307 306.198 128.307 306.198 126.704 -8.99 126.704"></polygon>
                        <polygon id="Fill-35" fill="#DADADA" mask="url(#mask-2)" points="-8.99 132.252 306.198 132.252 306.198 130.648 -8.99 130.648"></polygon>
                        <polygon id="Fill-36" fill="#DADADA" mask="url(#mask-2)" points="-8.99 136.195 306.198 136.195 306.198 134.592 -8.99 134.592"></polygon>
                        <polygon id="Fill-37" fill="#DADADA" mask="url(#mask-2)" points="-8.99 140.139 306.198 140.139 306.198 138.536 -8.99 138.536"></polygon>
                        <polygon id="Fill-38" fill="#DADADA" mask="url(#mask-2)" points="-8.99 144.084 306.198 144.084 306.198 142.481 -8.99 142.481"></polygon>
                        <polygon id="Fill-39" fill="#DADADA" mask="url(#mask-2)" points="-8.99 148.027 306.198 148.027 306.198 146.424 -8.99 146.424"></polygon>
                        <polygon id="Fill-40" fill="#DADADA" mask="url(#mask-2)" points="-8.99 151.971 306.198 151.971 306.198 150.368 -8.99 150.368"></polygon>
                        <polygon id="Fill-41" fill="#DADADA" mask="url(#mask-2)" points="-8.99 155.916 306.198 155.916 306.198 154.313 -8.99 154.313"></polygon>
                        <polygon id="Fill-42" fill="#DADADA" mask="url(#mask-2)" points="-8.99 159.859 306.198 159.859 306.198 158.256 -8.99 158.256"></polygon>
                        <polygon id="Fill-43" fill="#DADADA" mask="url(#mask-2)" points="-8.99 163.803 306.198 163.803 306.198 162.2 -8.99 162.2"></polygon>
                        <polygon id="Fill-44" fill="#DADADA" mask="url(#mask-2)" points="-8.99 167.748 306.198 167.748 306.198 166.145 -8.99 166.145"></polygon>
                        <polygon id="Fill-45" fill="#DADADA" mask="url(#mask-2)" points="-8.99 171.691 306.198 171.691 306.198 170.088 -8.99 170.088"></polygon>
                        <polygon id="Fill-46" fill="#DADADA" mask="url(#mask-2)" points="-8.99 175.635 306.198 175.635 306.198 174.032 -8.99 174.032"></polygon>
                        <polygon id="Fill-47" fill="#DADADA" mask="url(#mask-2)" points="-8.99 179.58 306.198 179.58 306.198 177.977 -8.99 177.977"></polygon>
                        <polygon id="Fill-48" fill="#DADADA" mask="url(#mask-2)" points="-8.99 183.524 306.198 183.524 306.198 181.92 -8.99 181.92"></polygon>
                        <polygon id="Fill-49" fill="#DADADA" mask="url(#mask-2)" points="-8.99 187.467 306.198 187.467 306.198 185.864 -8.99 185.864"></polygon>
                        <polygon id="Fill-50" fill="#DADADA" mask="url(#mask-2)" points="-8.99 191.412 306.198 191.412 306.198 189.809 -8.99 189.809"></polygon>
                        <polygon id="Fill-51" fill="#DADADA" mask="url(#mask-2)" points="-8.99 195.356 306.198 195.356 306.198 193.752 -8.99 193.752"></polygon>
                        <polygon id="Fill-52" fill="#DADADA" mask="url(#mask-2)" points="-8.99 199.299 306.198 199.299 306.198 197.696 -8.99 197.696"></polygon>
                        <polygon id="Fill-53" fill="#DADADA" mask="url(#mask-2)" points="-8.99 203.244 306.198 203.244 306.198 201.641 -8.99 201.641"></polygon>
                        <polygon id="Fill-54" fill="#DADADA" mask="url(#mask-2)" points="-8.99 207.188 306.198 207.188 306.198 205.585 -8.99 205.585"></polygon>
                        <polygon id="Fill-55" fill="#DADADA" mask="url(#mask-2)" points="-8.99 211.131 306.198 211.131 306.198 209.528 -8.99 209.528"></polygon>
                        <polygon id="Fill-56" fill="#DADADA" mask="url(#mask-2)" points="-8.99 215.076 306.198 215.076 306.198 213.473 -8.99 213.473"></polygon>
                        <polygon id="Fill-57" fill="#DADADA" mask="url(#mask-2)" points="-8.99 219.02 306.198 219.02 306.198 217.417 -8.99 217.417"></polygon>
                        <polygon id="Fill-58" fill="#DADADA" mask="url(#mask-2)" points="-8.99 222.964 306.198 222.964 306.198 221.361 -8.99 221.361"></polygon>
                        <polygon id="Fill-59" fill="#DADADA" mask="url(#mask-2)" points="-8.99 226.908 306.198 226.908 306.198 225.305 -8.99 225.305"></polygon>
                        <polygon id="Fill-60" fill="#DADADA" mask="url(#mask-2)" points="-8.99 230.852 306.198 230.852 306.198 229.249 -8.99 229.249"></polygon>
                        <polygon id="Fill-61" fill="#DADADA" mask="url(#mask-2)" points="-8.99 234.796 306.198 234.796 306.198 233.193 -8.99 233.193"></polygon>
                        <polygon id="Fill-62" fill="#DADADA" mask="url(#mask-2)" points="-8.99 238.74 306.198 238.74 306.198 237.137 -8.99 237.137"></polygon>
                        <polygon id="Fill-63" fill="#DADADA" mask="url(#mask-2)" points="-8.99 242.684 306.198 242.684 306.198 241.081 -8.99 241.081"></polygon>
                    </g>
                    <rect id="Rectangle-19-Copy" fill="#FF504D" x="94" y="109" width="192" height="51"></rect>
                    <text font-family="Helvetica" font-size="36" font-weight="normal" fill="#FFFFFF">
                        <tspan x="145" y="148">Berlin</tspan>
                    </text>
                </g>
            </g>
        </g>
    </g>
</svg>