<?xml version="1.0" encoding="UTF-8" standalone="no"?>
<svg width="251px" height="273px" viewBox="0 0 251 273" version="1.1" xmlns="http://www.w3.org/2000/svg" xmlns:xlink="http://www.w3.org/1999/xlink">
    <!-- Generator: Sketch 39.1 (31720) - http://www.bohemiancoding.com/sketch -->
    <title>Dessau</title>
    <desc>Created with Sketch.</desc>
    <defs>
        <path d="M150.820894,272.404 C151.592888,267.795299 149.049,267.556 149.049,267.556 C149.406,265.242 147.624,264.351 147.624,264.351 C147.445,265.242 145.665,265.509 145.665,265.509 L142.924,262.57 L139.611,262.125 L142.371,260.254 C143.618,258.652 142.371,256.694 142.371,256.694 L142.371,256.427 L139.949,254.333 C137.128,253.132 139.833,248.324 139.833,248.324 C140.368,246.588 138.898,244.718 138.898,244.718 L135.559,242.981 L135.559,234.034 L133.555,233.232 L132.487,227.356 L129.282,225.753 C126.076,224.15 129.148,218.674 129.148,218.674 L129.015,215.736 L129.816,215.202 L129.816,213.333 L132.487,213.065 L132.487,211.062 C130.885,207.189 125.399,209.593 125.399,209.593 C119.645,208.925 124.608,203.984 124.608,203.984 C126.878,200.511 123.539,197.573 123.539,197.573 C122.203,196.238 121.669,197.439 121.669,197.439 L116.995,207.59 L116.194,208.124 L116.194,209.459 L119.932,209.459 L119.932,211.597 L118.598,213.065 L118.598,213.733 L117.663,215.87 L116.059,215.202 L115.258,216.672 L112.32,216.805 L112.32,218.006 L111.118,215.603 L112.32,214.535 L109.115,215.202 L109.115,213.599 L98.564,214.802 L97.096,215.603 L97.096,214.802 L96.428,214.001 L94.819,214.001 L94.819,216.137 L93.623,214.001 L92.555,213.466 L83.606,234.835 L84.941,247.522 L33.79,224.15 L29.383,226.555 C28.582,225.753 25.109,225.753 25.109,225.753 L26.446,222.681 L22.038,222.013 L23.107,218.942 L19.768,218.141 L19.233,219.609 L15.226,218.006 L14.692,219.609 L11.219,218.674 L6.812,216.938 L7.614,214.802 L6.679,214.802 C7.614,213.065 6.546,211.196 6.546,211.196 L8.149,209.326 L8.415,207.323 L7.347,207.323 L6.011,209.326 L3.874,209.326 L5.21,206.388 L0.135,204.518 L6.412,201.446 L6.812,199.977 L5.21,197.439 L7.747,197.439 L8.014,195.57 L6.412,188.892 L9.349,186.756 C10.419,185.419 14.425,184.485 14.425,184.485 L15.493,185.286 L16.829,183.95 L16.429,182.749 L19.1,181.279 L19.1,179.543 L20.302,179.543 L20.569,175.67 L19.366,175.67 L19.901,172.064 L16.161,170.595 L17.763,151.765 L20.434,145.754 L21.102,145.087 L22.973,137.206 L22.973,129.861 L24.441,120.779 L24.175,120.645 C23.908,120.512 22.572,116.639 22.572,116.639 C21.37,116.639 20.302,118.107 20.302,118.107 C16.027,117.173 14.959,114.102 14.959,114.102 C6.946,115.971 2.406,114.102 2.406,114.102 L2.406,108.091 L3.874,102.348 L5.076,99.81 L6.812,93.534 L6.812,87.123 L8.682,83.784 L10.285,83.651 C14.425,85.52 18.432,85.654 18.432,85.654 L19.901,77.507 L24.843,77.641 L27.246,78.709 L38.999,79.51 L39.934,77.373 L47.547,77.373 L47.547,79.51 L52.622,79.51 L52.889,74.169 C48.081,74.702 44.474,70.162 44.474,70.162 L45.276,66.69 L41.404,65.754 L41.804,61.748 L41.67,58.008 L34.058,57.34 L31.253,50.93 L36.996,47.19 C38.598,46.656 41.67,47.457 41.67,47.457 L43.006,45.187 L45.811,46.522 L46.879,48.926 L48.214,50.129 L53.289,49.06 L55.025,49.06 L55.827,41.849 L58.765,41.849 L63.039,38.643 L63.039,40.379 L65.309,37.842 L71.051,33.701 L71.186,30.363 C67.981,29.961 67.58,25.154 67.58,25.154 C69.983,25.02 72.254,23.819 72.254,23.819 L71.453,21.147 L72.388,20.48 L72.388,17.007 L70.518,16.34 L68.381,16.34 L69.851,10.596 L72.388,9.795 L73.723,10.596 C75.86,9.662 79.6,10.596 79.6,10.596 L84.941,10.596 L84.941,2.45 L88.231,2.941 L91.703,2.763 L94.108,2.852 L94.819,3.742 L99.182,5.345 L101.408,4.276 L101.854,3.386 L107.195,2.228 L108.175,1.427 L110.045,0.626 L117.078,0.091 L119.749,0.892 L121.798,0.892 L122.332,7.393 L119.838,8.818 L120.73,11.934 L113.429,14.516 L115.565,20.035 L119.752,24.041 L119.218,25.377 L121.354,27.513 L119.84,28.671 L123.669,31.076 L125.273,29.295 L127.498,30.541 L129.724,30.986 L130.793,29.739 L131.416,29.739 L131.416,28.761 L132.395,26.802 L134.621,26.979 L135.956,25.288 L136.224,24.041 L135.51,24.219 L136.312,21.905 L138.716,24.041 L141.21,22.35 L143.168,24.309 L148.777,36.506 C143.525,38.999 140.943,44.52 140.943,44.52 L141.12,50.396 L142.099,59.211 C141.833,63.662 142.546,64.73 142.546,64.73 L148.867,67.135 L147.443,68.471 C145.129,70.607 146.018,74.435 146.018,74.435 L150.025,76.038 L147.799,77.373 C145.751,77.908 147.533,81.826 147.533,81.826 L149.402,83.25 C149.224,84.319 150.115,86.723 150.115,86.723 L149.046,89.661 L149.313,92.154 L150.382,95.092 L148.601,99.187 L147.086,98.208 L145.039,98.475 L144.059,97.852 L143.169,98.475 L142.368,97.941 L141.032,99.099 L139.251,98.832 L137.56,99.544 C137.115,101.146 132.394,104.085 132.394,104.085 L132.214,107.379 L129.455,109.516 L130.612,109.962 L124.29,121.448 L124.291,126.345 L128.655,131.688 L128.743,129.105 C130.258,129.55 131.147,131.509 131.147,131.509 L131.949,132.489 L127.586,132.044 L131.237,134.181 L131.416,135.426 L132.217,136.227 L132.84,136.227 L132.661,133.646 C133.818,132.578 134.977,134.714 134.977,134.714 C134.977,136.851 138.628,140.858 138.628,140.858 C138.451,144.954 141.299,147.002 141.299,147.002 L142.901,146.735 L144.504,150.296 L147.799,150.92 L148.956,155.995 L148.155,157.865 L150.828,168.46 L151.986,168.371 C150.828,168.46 149.848,177.452 149.848,177.452 L148.513,176.383 L139.699,187.781 L139.699,189.828 L139.342,193.48 L148.958,201.937 L148.958,204.698 L164.541,209.772 L165.698,212.799 L162.582,220.634 L164.363,225.621 C166.233,225.264 168.103,228.292 168.103,228.292 C169.082,230.073 168.903,231.852 168.903,231.852 L165.877,239.955 L165.52,249.571 C165.431,250.906 166.677,252.064 166.677,252.064 L169.884,252.866 L169.884,253.666 L168.458,253.666 L167.035,255.003 L166.321,255.091 C166.321,255.091 166.589,256.783 166.233,258.029 C166.206,258.119 166.199,258.246 166.209,258.399 C166.325,260.362 169.082,267.022 169.082,267.022 L171.397,268.18 C172.465,269.069 171.397,271.563 171.397,271.563 L170.773,270.939 L168.369,271.652 L168.369,272.404 L164.007,272.404 L164.007,271.296 C163.472,270.227 160.446,271.029 160.446,271.029 L160.665901,272.404 L157.994944,272.404 L157.952,272.365 L157.474953,272.404 L150.820894,272.404 L150.820894,272.404 Z" id="path-1"></path>
    </defs>
    <g id="Page-1" stroke="none" stroke-width="1" fill="none" fill-rule="evenodd">
        <g id="Cities" transform="translate(-933.000000, -465.000000)">
            <g transform="translate(256.000000, 465.000000)" id="Dessau">
                <g transform="translate(677.000000, 0.000000)">
                    <g id="Page-1">
                        <mask id="mask-2" fill="white">
                            <use xlink:href="#path-1"></use>
                        </mask>
                        <g id="Clip-2"></g>
                        <polygon id="Fill-1" fill="#DADADA" mask="url(#mask-2)" points="-135 0.266 180.188 0.266 180.188 -1.337 -135 -1.337"></polygon>
                        <polygon id="Fill-3" fill="#DADADA" mask="url(#mask-2)" points="-135 4.21 180.188 4.21 180.188 2.607 -135 2.607"></polygon>
                        <polygon id="Fill-4" fill="#DADADA" mask="url(#mask-2)" points="-135 8.154 180.188 8.154 180.188 6.551 -135 6.551"></polygon>
                        <polygon id="Fill-5" fill="#DADADA" mask="url(#mask-2)" points="-135 12.098 180.188 12.098 180.188 10.495 -135 10.495"></polygon>
                        <polygon id="Fill-6" fill="#DADADA" mask="url(#mask-2)" points="-135 16.043 180.188 16.043 180.188 14.44 -135 14.44"></polygon>
                        <polygon id="Fill-7" fill="#DADADA" mask="url(#mask-2)" points="-135 19.986 180.188 19.986 180.188 18.383 -135 18.383"></polygon>
                        <polygon id="Fill-8" fill="#DADADA" mask="url(#mask-2)" points="-135 23.93 180.188 23.93 180.188 22.327 -135 22.327"></polygon>
                        <polygon id="Fill-9" fill="#DADADA" mask="url(#mask-2)" points="-135 27.875 180.188 27.875 180.188 26.272 -135 26.272"></polygon>
                        <polygon id="Fill-10" fill="#DADADA" mask="url(#mask-2)" points="-135 31.818 180.188 31.818 180.188 30.215 -135 30.215"></polygon>
                        <polygon id="Fill-11" fill="#DADADA" mask="url(#mask-2)" points="-135 35.762 180.188 35.762 180.188 34.159 -135 34.159"></polygon>
                        <polygon id="Fill-12" fill="#DADADA" mask="url(#mask-2)" points="-135 39.707 180.188 39.707 180.188 38.104 -135 38.104"></polygon>
                        <polygon id="Fill-13" fill="#DADADA" mask="url(#mask-2)" points="-135 43.651 180.188 43.651 180.188 42.048 -135 42.048"></polygon>
                        <polygon id="Fill-14" fill="#DADADA" mask="url(#mask-2)" points="-135 47.595 180.188 47.595 180.188 45.992 -135 45.992"></polygon>
                        <polygon id="Fill-15" fill="#DADADA" mask="url(#mask-2)" points="-135 51.539 180.188 51.539 180.188 49.936 -135 49.936"></polygon>
                        <polygon id="Fill-16" fill="#DADADA" mask="url(#mask-2)" points="-135 55.483 180.188 55.483 180.188 53.88 -135 53.88"></polygon>
                        <polygon id="Fill-17" fill="#DADADA" mask="url(#mask-2)" points="-135 59.427 180.188 59.427 180.188 57.824 -135 57.824"></polygon>
                        <polygon id="Fill-18" fill="#DADADA" mask="url(#mask-2)" points="-135 63.371 180.188 63.371 180.188 61.768 -135 61.768"></polygon>
                        <polygon id="Fill-19" fill="#DADADA" mask="url(#mask-2)" points="-135 67.315 180.188 67.315 180.188 65.712 -135 65.712"></polygon>
                        <polygon id="Fill-20" fill="#DADADA" mask="url(#mask-2)" points="-135 71.259 180.188 71.259 180.188 69.656 -135 69.656"></polygon>
                        <polygon id="Fill-21" fill="#DADADA" mask="url(#mask-2)" points="-135 75.203 180.188 75.203 180.188 73.6 -135 73.6"></polygon>
                        <polygon id="Fill-22" fill="#DADADA" mask="url(#mask-2)" points="-135 79.147 180.188 79.147 180.188 77.544 -135 77.544"></polygon>
                        <polygon id="Fill-23" fill="#DADADA" mask="url(#mask-2)" points="-135 83.091 180.188 83.091 180.188 81.488 -135 81.488"></polygon>
                        <polygon id="Fill-24" fill="#DADADA" mask="url(#mask-2)" points="-135 87.035 180.188 87.035 180.188 85.432 -135 85.432"></polygon>
                        <polygon id="Fill-25" fill="#DADADA" mask="url(#mask-2)" points="-135 90.979 180.188 90.979 180.188 89.376 -135 89.376"></polygon>
                        <polygon id="Fill-26" fill="#DADADA" mask="url(#mask-2)" points="-135 94.923 180.188 94.923 180.188 93.32 -135 93.32"></polygon>
                        <polygon id="Fill-27" fill="#DADADA" mask="url(#mask-2)" points="-135 98.867 180.188 98.867 180.188 97.264 -135 97.264"></polygon>
                        <polygon id="Fill-28" fill="#DADADA" mask="url(#mask-2)" points="-135 102.811 180.188 102.811 180.188 101.208 -135 101.208"></polygon>
                        <polygon id="Fill-29" fill="#DADADA" mask="url(#mask-2)" points="-135 106.755 180.188 106.755 180.188 105.152 -135 105.152"></polygon>
                        <polygon id="Fill-30" fill="#DADADA" mask="url(#mask-2)" points="-135 110.699 180.188 110.699 180.188 109.096 -135 109.096"></polygon>
                        <polygon id="Fill-31" fill="#DADADA" mask="url(#mask-2)" points="-135 114.643 180.188 114.643 180.188 113.04 -135 113.04"></polygon>
                        <polygon id="Fill-32" fill="#DADADA" mask="url(#mask-2)" points="-135 118.587 180.188 118.587 180.188 116.984 -135 116.984"></polygon>
                        <polygon id="Fill-33" fill="#DADADA" mask="url(#mask-2)" points="-135 122.531 180.188 122.531 180.188 120.928 -135 120.928"></polygon>
                        <polygon id="Fill-34" fill="#DADADA" mask="url(#mask-2)" points="-135 126.475 180.188 126.475 180.188 124.872 -135 124.872"></polygon>
                        <polygon id="Fill-35" fill="#DADADA" mask="url(#mask-2)" points="-135 130.419 180.188 130.419 180.188 128.816 -135 128.816"></polygon>
                        <polygon id="Fill-36" fill="#DADADA" mask="url(#mask-2)" points="-135 134.363 180.188 134.363 180.188 132.76 -135 132.76"></polygon>
                        <polygon id="Fill-37" fill="#DADADA" mask="url(#mask-2)" points="-135 138.307 180.188 138.307 180.188 136.704 -135 136.704"></polygon>
                        <polygon id="Fill-38" fill="#DADADA" mask="url(#mask-2)" points="-135 142.252 180.188 142.252 180.188 140.648 -135 140.648"></polygon>
                        <polygon id="Fill-39" fill="#DADADA" mask="url(#mask-2)" points="-135 146.195 180.188 146.195 180.188 144.592 -135 144.592"></polygon>
                        <polygon id="Fill-40" fill="#DADADA" mask="url(#mask-2)" points="-135 150.139 180.188 150.139 180.188 148.536 -135 148.536"></polygon>
                        <polygon id="Fill-41" fill="#DADADA" mask="url(#mask-2)" points="-135 154.084 180.188 154.084 180.188 152.481 -135 152.481"></polygon>
                        <polygon id="Fill-42" fill="#DADADA" mask="url(#mask-2)" points="-135 158.027 180.188 158.027 180.188 156.424 -135 156.424"></polygon>
                        <polygon id="Fill-43" fill="#DADADA" mask="url(#mask-2)" points="-135 161.971 180.188 161.971 180.188 160.368 -135 160.368"></polygon>
                        <polygon id="Fill-44" fill="#DADADA" mask="url(#mask-2)" points="-135 165.916 180.188 165.916 180.188 164.313 -135 164.313"></polygon>
                        <polygon id="Fill-45" fill="#DADADA" mask="url(#mask-2)" points="-135 169.859 180.188 169.859 180.188 168.256 -135 168.256"></polygon>
                        <polygon id="Fill-46" fill="#DADADA" mask="url(#mask-2)" points="-135 173.803 180.188 173.803 180.188 172.2 -135 172.2"></polygon>
                        <polygon id="Fill-47" fill="#DADADA" mask="url(#mask-2)" points="-135 177.748 180.188 177.748 180.188 176.145 -135 176.145"></polygon>
                        <polygon id="Fill-48" fill="#DADADA" mask="url(#mask-2)" points="-135 181.691 180.188 181.691 180.188 180.088 -135 180.088"></polygon>
                        <polygon id="Fill-49" fill="#DADADA" mask="url(#mask-2)" points="-135 185.635 180.188 185.635 180.188 184.032 -135 184.032"></polygon>
                        <polygon id="Fill-50" fill="#DADADA" mask="url(#mask-2)" points="-135 189.58 180.188 189.58 180.188 187.977 -135 187.977"></polygon>
                        <polygon id="Fill-51" fill="#DADADA" mask="url(#mask-2)" points="-135 193.524 180.188 193.524 180.188 191.92 -135 191.92"></polygon>
                        <polygon id="Fill-52" fill="#DADADA" mask="url(#mask-2)" points="-135 197.467 180.188 197.467 180.188 195.864 -135 195.864"></polygon>
                        <polygon id="Fill-53" fill="#DADADA" mask="url(#mask-2)" points="-135 201.412 180.188 201.412 180.188 199.809 -135 199.809"></polygon>
                        <polygon id="Fill-54" fill="#DADADA" mask="url(#mask-2)" points="-135 205.356 180.188 205.356 180.188 203.752 -135 203.752"></polygon>
                        <polygon id="Fill-55" fill="#DADADA" mask="url(#mask-2)" points="-135 209.299 180.188 209.299 180.188 207.696 -135 207.696"></polygon>
                        <polygon id="Fill-56" fill="#DADADA" mask="url(#mask-2)" points="-135 213.244 180.188 213.244 180.188 211.641 -135 211.641"></polygon>
                        <polygon id="Fill-57" fill="#DADADA" mask="url(#mask-2)" points="-135 217.188 180.188 217.188 180.188 215.585 -135 215.585"></polygon>
                        <polygon id="Fill-58" fill="#DADADA" mask="url(#mask-2)" points="-135 221.131 180.188 221.131 180.188 219.528 -135 219.528"></polygon>
                        <polygon id="Fill-59" fill="#DADADA" mask="url(#mask-2)" points="-135 225.076 180.188 225.076 180.188 223.473 -135 223.473"></polygon>
                        <polygon id="Fill-60" fill="#DADADA" mask="url(#mask-2)" points="-135 229.02 180.188 229.02 180.188 227.417 -135 227.417"></polygon>
                        <polygon id="Fill-61" fill="#DADADA" mask="url(#mask-2)" points="-135 232.964 180.188 232.964 180.188 231.361 -135 231.361"></polygon>
                        <polygon id="Fill-62" fill="#DADADA" mask="url(#mask-2)" points="-135 236.908 180.188 236.908 180.188 235.305 -135 235.305"></polygon>
                        <polygon id="Fill-63" fill="#DADADA" mask="url(#mask-2)" points="-135 240.852 180.188 240.852 180.188 239.249 -135 239.249"></polygon>
                        <polygon id="Fill-64" fill="#DADADA" mask="url(#mask-2)" points="-135 244.796 180.188 244.796 180.188 243.193 -135 243.193"></polygon>
                        <polygon id="Fill-65" fill="#DADADA" mask="url(#mask-2)" points="-135 248.74 180.188 248.74 180.188 247.137 -135 247.137"></polygon>
                        <polygon id="Fill-66" fill="#DADADA" mask="url(#mask-2)" points="-135 252.684 180.188 252.684 180.188 251.081 -135 251.081"></polygon>
                        <polygon id="Fill-67" fill="#DADADA" mask="url(#mask-2)" points="-135 256.628 180.188 256.628 180.188 255.025 -135 255.025"></polygon>
                        <polygon id="Fill-68" fill="#DADADA" mask="url(#mask-2)" points="-135 260.572 180.188 260.572 180.188 258.969 -135 258.969"></polygon>
                        <polygon id="Fill-69" fill="#DADADA" mask="url(#mask-2)" points="-135 264.516 180.188 264.516 180.188 262.913 -135 262.913"></polygon>
                        <polygon id="Fill-70" fill="#DADADA" mask="url(#mask-2)" points="-135 268.461 180.188 268.461 180.188 266.857 -135 266.857"></polygon>
                        <polygon id="Fill-71" fill="#DADADA" mask="url(#mask-2)" points="-135 272.404 180.188 272.404 180.188 270.801 -135 270.801"></polygon>
                    </g>
                    <rect id="Rectangle-19-Copy-2" fill="#FFD300" x="59" y="131" width="192" height="51"></rect>
                    <text font-family="Helvetica" font-size="36" font-weight="normal" fill="#FFFFFF">
                        <tspan x="100" y="170">Dessau</tspan>
                    </text>
                </g>
            </g>
        </g>
    </g>
</svg>