<?xml version="1.0" encoding="UTF-8" standalone="no"?>
<svg width="288px" height="279px" viewBox="0 0 288 279" version="1.1" xmlns="http://www.w3.org/2000/svg" xmlns:xlink="http://www.w3.org/1999/xlink">
    <!-- Generator: Sketch 39.1 (31720) - http://www.bohemiancoding.com/sketch -->
    <title>Weimar</title>
    <desc>Created with Sketch.</desc>
    <defs>
        <path d="M95.6208214,278.047 L91.362,275.817 L87.612,277.317 L84.362,274.567 L80.613,272.066 L76.612,267.067 L78.363,265.316 L79.611,261.317 C81.861,259.566 79.61,256.566 79.61,256.566 L72.608,252.066 L69.854,255.066 C68.854,254.567 64.347,256.566 64.347,256.566 L56.831,236.316 C55.581,235.567 48.799,236.316 48.799,236.316 L49.988,226.816 L39.863,231.316 L39.362,228.567 L37.112,229.817 L37.112,225.567 L34.987,223.317 C44.488,220.566 56.362,225.567 56.362,225.567 C58.862,225.066 58.862,218.318 58.862,218.318 L65.112,216.626 L66.112,215.075 L67.612,216.082 C69.862,217.332 72.112,216.098 72.112,216.098 L72.362,213.629 L75.362,210.692 L64.112,206.816 C64.863,203.817 61.363,189.567 61.363,189.567 C55.362,183.066 50.113,161.816 50.113,161.816 L48.863,161.816 L47.612,158.566 L49.113,154.816 L49.113,151.067 L45.112,152.317 L45.112,145.567 L46.112,143.816 L46.112,133.566 L43.22,121.567 L38.863,117.567 L41.113,107.816 L44.112,107.816 L43.612,105.691 L45.112,103.817 C47.863,98.566 46.112,80.816 46.112,80.816 L46.112,77.817 L42.862,77.817 L41.113,74.567 L39.612,76.817 L33.113,73.816 L27.112,73.816 L17.363,68.973 L19.112,64.379 L17.363,57.942 L18.362,54.067 L15.238,51.067 L13.113,48.817 L8.613,48.817 L0.112,42.942 L2.863,36.567 L7.112,34.816 L7.112,31.817 L10.112,31.817 L13.862,19.317 L16.112,21.817 L16.112,16.816 L20.112,10.816 L20.112,8.816 L20.112,7.816 L20.112,2.317 L22.862,0.941 L25.363,7.566 L27.738,6.817 L30.112,10.816 L26.613,10.816 L22.97,12.254 L33.612,13.191 C33.113,12.191 34.862,8.566 34.862,8.566 L42.862,12.316 L54.862,27.067 L57.111,26.317 L60.36,27.067 L77.358,10.816 C81.608,13.316 88.605,14.316 88.605,14.316 L95.597,24.316 C93.597,24.566 89.081,29.567 89.081,29.567 L90.8,33.067 L100.738,26.566 L101.612,30.316 L103.113,29.817 L103.113,34.067 L102.237,33.067 L99.613,41.067 L100.112,44.067 L105.612,36.317 C109.362,34.816 117.862,25.067 117.862,25.067 L122.675,30.316 L125.613,36.317 C129.863,35.566 132.612,27.567 132.612,27.567 L134.112,28.816 L136.613,28.567 L139.862,32.566 C139.113,35.566 142.862,39.066 142.862,39.066 L143.363,41.817 L147.612,38.817 L149.362,40.066 L151.861,38.817 L153.61,40.567 L160.608,41.316 L172.354,37.317 L182.846,42.067 L183.581,43.816 L202.55,40.316 C204.049,48.316 186.987,53.816 186.987,53.816 L181.362,54.317 L178.112,54.816 L178.112,59.566 L174.737,61.566 L174.111,59.566 L165.11,68.316 L172.858,83.317 L173.854,86.817 L178.597,86.566 C175.347,89.317 178.581,93.567 178.581,93.567 C179.331,95.566 182.549,93.066 182.549,93.066 C184.05,92.317 184.988,94.316 184.988,94.316 C195.238,94.066 196.112,100.317 196.112,100.317 C193.862,107.067 190.112,107.816 190.112,107.816 L190.112,109.816 L194.847,121.066 L197.081,121.316 L198.55,123.566 L203.238,121.567 L200.612,113.316 L202.113,113.817 L202.113,111.066 L210.863,108.567 L215.112,103.066 L220.862,101.567 L224.613,98.068 L227.362,97.818 L225.862,101.82 L228.863,102.824 L227.112,106.332 L227.863,109.597 L231.612,108.379 C230.113,113.129 235.362,125.192 235.362,125.192 L231.862,130.066 L231.113,141.817 L229.113,141.817 L229.612,149.818 L223.862,152.571 L225.112,162.824 L231.612,163.082 L232.862,160.598 L238.113,162.129 L238.612,168.691 L245.112,169.566 L238.113,190.816 L233.363,190.816 L229.487,193.692 L217.863,209.817 L214.112,207.816 L214.112,212.316 L208.8,210.066 L205.488,213.816 L202.612,211.817 C200.362,212.316 195.113,220.817 195.113,220.817 L195.113,222.566 L193.113,225.066 L188.112,224.816 L188.112,226.816 L182.988,224.566 L180.862,230.067 L177.113,228.817 L177.113,232.067 L174.112,231.816 L174.112,228.817 L174.112,226.816 L174.112,221.566 C174.112,222.316 168.363,221.817 168.363,221.817 C163.362,220.316 157.612,221.566 157.612,221.566 L154.362,218.817 C151.612,218.817 148.862,220.566 148.862,220.566 L146.111,220.316 L144.361,221.566 L142.608,222.316 C139.609,222.816 140.605,227.066 140.605,227.066 L138.097,226.816 L137.581,228.817 L134.299,231.067 L134.987,239.067 L137.863,250.067 L142.112,251.816 L142.112,256.566 C140.113,256.566 137.674,259.566 137.674,259.566 C136.675,260.566 130.737,262.816 130.737,262.816 C127.487,263.817 125.862,268.067 125.862,268.067 L124.112,270.816 L124.112,274.066 L117.604,272.317 L115.097,273.066 L110.581,271.567 L108.55,273.567 L104.487,272.817 L100.863,277.317 L97.112,274.817 L97.112,269.317 L92.738,267.942 L90.112,267.067 L93.362,270.067 L94.862,273.567 L97.862,277.317 L97.1314155,278.047 L95.6208214,278.047 L95.6208214,278.047 Z" id="path-1"></path>
    </defs>
    <g id="Page-1" stroke="none" stroke-width="1" fill="none" fill-rule="evenodd">
        <g id="Cities" transform="translate(-256.000000, -469.000000)">
            <g transform="translate(256.000000, 465.000000)" id="Weimar">
                <g transform="translate(0.000000, 4.000000)">
                    <g id="Page-1">
                        <mask id="mask-2" fill="white">
                            <use xlink:href="#path-1"></use>
                        </mask>
                        <g id="Clip-2"></g>
                        <polygon id="Fill-1" fill="#DADADA" mask="url(#mask-2)" points="-12 1.192 283 1.192 283 -0.308 -12 -0.308"></polygon>
                        <polygon id="Fill-3" fill="#DADADA" mask="url(#mask-2)" points="-12 4.883 283 4.883 283 3.383 -12 3.383"></polygon>
                        <polygon id="Fill-4" fill="#DADADA" mask="url(#mask-2)" points="-12 8.574 283 8.574 283 7.074 -12 7.074"></polygon>
                        <polygon id="Fill-5" fill="#DADADA" mask="url(#mask-2)" points="-12 12.266 283 12.266 283 10.766 -12 10.766"></polygon>
                        <polygon id="Fill-6" fill="#DADADA" mask="url(#mask-2)" points="-12 15.957 283 15.957 283 14.457 -12 14.457"></polygon>
                        <polygon id="Fill-7" fill="#DADADA" mask="url(#mask-2)" points="-12 19.649 283 19.649 283 18.149 -12 18.149"></polygon>
                        <polygon id="Fill-8" fill="#DADADA" mask="url(#mask-2)" points="-12 23.34 283 23.34 283 21.84 -12 21.84"></polygon>
                        <polygon id="Fill-9" fill="#DADADA" mask="url(#mask-2)" points="-12 27.031 283 27.031 283 25.531 -12 25.531"></polygon>
                        <polygon id="Fill-10" fill="#DADADA" mask="url(#mask-2)" points="-12 30.723 283 30.723 283 29.223 -12 29.223"></polygon>
                        <polygon id="Fill-11" fill="#DADADA" mask="url(#mask-2)" points="-12 34.414 283 34.414 283 32.914 -12 32.914"></polygon>
                        <polygon id="Fill-12" fill="#DADADA" mask="url(#mask-2)" points="-12 38.106 283 38.106 283 36.606 -12 36.606"></polygon>
                        <polygon id="Fill-13" fill="#DADADA" mask="url(#mask-2)" points="-12 41.797 283 41.797 283 40.297 -12 40.297"></polygon>
                        <polygon id="Fill-14" fill="#DADADA" mask="url(#mask-2)" points="-12 45.488 283 45.488 283 43.988 -12 43.988"></polygon>
                        <polygon id="Fill-15" fill="#DADADA" mask="url(#mask-2)" points="-12 49.18 283 49.18 283 47.68 -12 47.68"></polygon>
                        <polygon id="Fill-16" fill="#DADADA" mask="url(#mask-2)" points="-12 52.871 283 52.871 283 51.371 -12 51.371"></polygon>
                        <polygon id="Fill-17" fill="#DADADA" mask="url(#mask-2)" points="-12 56.563 283 56.563 283 55.063 -12 55.063"></polygon>
                        <polygon id="Fill-18" fill="#DADADA" mask="url(#mask-2)" points="-12 60.254 283 60.254 283 58.754 -12 58.754"></polygon>
                        <polygon id="Fill-19" fill="#DADADA" mask="url(#mask-2)" points="-12 63.945 283 63.945 283 62.445 -12 62.445"></polygon>
                        <polygon id="Fill-20" fill="#DADADA" mask="url(#mask-2)" points="-12 67.637 283 67.637 283 66.137 -12 66.137"></polygon>
                        <polygon id="Fill-21" fill="#DADADA" mask="url(#mask-2)" points="-12 71.328 283 71.328 283 69.828 -12 69.828"></polygon>
                        <polygon id="Fill-22" fill="#DADADA" mask="url(#mask-2)" points="-12 75.02 283 75.02 283 73.52 -12 73.52"></polygon>
                        <polygon id="Fill-23" fill="#DADADA" mask="url(#mask-2)" points="-12 78.711 283 78.711 283 77.211 -12 77.211"></polygon>
                        <polygon id="Fill-24" fill="#DADADA" mask="url(#mask-2)" points="-12 82.402 283 82.402 283 80.902 -12 80.902"></polygon>
                        <polygon id="Fill-25" fill="#DADADA" mask="url(#mask-2)" points="-12 86.094 283 86.094 283 84.594 -12 84.594"></polygon>
                        <polygon id="Fill-26" fill="#DADADA" mask="url(#mask-2)" points="-12 89.785 283 89.785 283 88.285 -12 88.285"></polygon>
                        <polygon id="Fill-27" fill="#DADADA" mask="url(#mask-2)" points="-12 93.477 283 93.477 283 91.977 -12 91.977"></polygon>
                        <polygon id="Fill-28" fill="#DADADA" mask="url(#mask-2)" points="-12 97.168 283 97.168 283 95.668 -12 95.668"></polygon>
                        <polygon id="Fill-29" fill="#DADADA" mask="url(#mask-2)" points="-12 100.859 283 100.859 283 99.359 -12 99.359"></polygon>
                        <polygon id="Fill-30" fill="#DADADA" mask="url(#mask-2)" points="-12 104.551 283 104.551 283 103.051 -12 103.051"></polygon>
                        <polygon id="Fill-31" fill="#DADADA" mask="url(#mask-2)" points="-12 108.242 283 108.242 283 106.742 -12 106.742"></polygon>
                        <polygon id="Fill-32" fill="#DADADA" mask="url(#mask-2)" points="-12 111.934 283 111.934 283 110.434 -12 110.434"></polygon>
                        <polygon id="Fill-33" fill="#DADADA" mask="url(#mask-2)" points="-12 115.625 283 115.625 283 114.125 -12 114.125"></polygon>
                        <polygon id="Fill-34" fill="#DADADA" mask="url(#mask-2)" points="-12 119.317 283 119.317 283 117.817 -12 117.817"></polygon>
                        <polygon id="Fill-35" fill="#DADADA" mask="url(#mask-2)" points="-12 123.008 283 123.008 283 121.508 -12 121.508"></polygon>
                        <polygon id="Fill-36" fill="#DADADA" mask="url(#mask-2)" points="-12 126.699 283 126.699 283 125.199 -12 125.199"></polygon>
                        <polygon id="Fill-37" fill="#DADADA" mask="url(#mask-2)" points="-12 130.391 283 130.391 283 128.891 -12 128.891"></polygon>
                        <polygon id="Fill-38" fill="#DADADA" mask="url(#mask-2)" points="-12 134.082 283 134.082 283 132.582 -12 132.582"></polygon>
                        <polygon id="Fill-39" fill="#DADADA" mask="url(#mask-2)" points="-12 137.774 283 137.774 283 136.274 -12 136.274"></polygon>
                        <polygon id="Fill-40" fill="#DADADA" mask="url(#mask-2)" points="-12 141.465 283 141.465 283 139.965 -12 139.965"></polygon>
                        <polygon id="Fill-41" fill="#DADADA" mask="url(#mask-2)" points="-12 145.156 283 145.156 283 143.656 -12 143.656"></polygon>
                        <polygon id="Fill-42" fill="#DADADA" mask="url(#mask-2)" points="-12 148.848 283 148.848 283 147.348 -12 147.348"></polygon>
                        <polygon id="Fill-43" fill="#DADADA" mask="url(#mask-2)" points="-12 152.539 283 152.539 283 151.039 -12 151.039"></polygon>
                        <polygon id="Fill-44" fill="#DADADA" mask="url(#mask-2)" points="-12 156.231 283 156.231 283 154.731 -12 154.731"></polygon>
                        <polygon id="Fill-45" fill="#DADADA" mask="url(#mask-2)" points="-12 159.922 283 159.922 283 158.422 -12 158.422"></polygon>
                        <polygon id="Fill-46" fill="#DADADA" mask="url(#mask-2)" points="-12 163.613 283 163.613 283 162.113 -12 162.113"></polygon>
                        <polygon id="Fill-47" fill="#DADADA" mask="url(#mask-2)" points="-12 167.305 283 167.305 283 165.805 -12 165.805"></polygon>
                        <polygon id="Fill-48" fill="#DADADA" mask="url(#mask-2)" points="-12 170.996 283 170.996 283 169.496 -12 169.496"></polygon>
                        <polygon id="Fill-49" fill="#DADADA" mask="url(#mask-2)" points="-12 174.688 283 174.688 283 173.188 -12 173.188"></polygon>
                        <polygon id="Fill-50" fill="#DADADA" mask="url(#mask-2)" points="-12 178.379 283 178.379 283 176.879 -12 176.879"></polygon>
                        <polygon id="Fill-51" fill="#DADADA" mask="url(#mask-2)" points="-12 182.07 283 182.07 283 180.57 -12 180.57"></polygon>
                        <polygon id="Fill-52" fill="#DADADA" mask="url(#mask-2)" points="-12 185.762 283 185.762 283 184.262 -12 184.262"></polygon>
                        <polygon id="Fill-53" fill="#DADADA" mask="url(#mask-2)" points="-12 189.453 283 189.453 283 187.953 -12 187.953"></polygon>
                        <polygon id="Fill-54" fill="#DADADA" mask="url(#mask-2)" points="-12 193.145 283 193.145 283 191.645 -12 191.645"></polygon>
                        <polygon id="Fill-55" fill="#DADADA" mask="url(#mask-2)" points="-12 196.836 283 196.836 283 195.336 -12 195.336"></polygon>
                        <polygon id="Fill-56" fill="#DADADA" mask="url(#mask-2)" points="-12 200.527 283 200.527 283 199.027 -12 199.027"></polygon>
                        <polygon id="Fill-57" fill="#DADADA" mask="url(#mask-2)" points="-12 204.219 283 204.219 283 202.719 -12 202.719"></polygon>
                        <polygon id="Fill-58" fill="#DADADA" mask="url(#mask-2)" points="-12 207.91 283 207.91 283 206.41 -12 206.41"></polygon>
                        <polygon id="Fill-59" fill="#DADADA" mask="url(#mask-2)" points="-12 211.602 283 211.602 283 210.102 -12 210.102"></polygon>
                        <polygon id="Fill-60" fill="#DADADA" mask="url(#mask-2)" points="-12 215.293 283 215.293 283 213.793 -12 213.793"></polygon>
                        <polygon id="Fill-61" fill="#DADADA" mask="url(#mask-2)" points="-12 218.984 283 218.984 283 217.484 -12 217.484"></polygon>
                        <polygon id="Fill-62" fill="#DADADA" mask="url(#mask-2)" points="-12 222.676 283 222.676 283 221.176 -12 221.176"></polygon>
                        <polygon id="Fill-63" fill="#DADADA" mask="url(#mask-2)" points="-12 226.367 283 226.367 283 224.867 -12 224.867"></polygon>
                        <polygon id="Fill-64" fill="#DADADA" mask="url(#mask-2)" points="-12 230.059 283 230.059 283 228.559 -12 228.559"></polygon>
                        <polygon id="Fill-65" fill="#DADADA" mask="url(#mask-2)" points="-12 233.75 283 233.75 283 232.25 -12 232.25"></polygon>
                        <polygon id="Fill-66" fill="#DADADA" mask="url(#mask-2)" points="-12 237.441 283 237.441 283 235.941 -12 235.941"></polygon>
                        <polygon id="Fill-67" fill="#DADADA" mask="url(#mask-2)" points="-12 241.133 283 241.133 283 239.633 -12 239.633"></polygon>
                        <polygon id="Fill-68" fill="#DADADA" mask="url(#mask-2)" points="-12 244.824 283 244.824 283 243.324 -12 243.324"></polygon>
                        <polygon id="Fill-69" fill="#DADADA" mask="url(#mask-2)" points="-12 248.516 283 248.516 283 247.016 -12 247.016"></polygon>
                        <polygon id="Fill-70" fill="#DADADA" mask="url(#mask-2)" points="-12 252.207 283 252.207 283 250.707 -12 250.707"></polygon>
                        <polygon id="Fill-71" fill="#DADADA" mask="url(#mask-2)" points="-12 255.899 283 255.899 283 254.399 -12 254.399"></polygon>
                        <polygon id="Fill-72" fill="#DADADA" mask="url(#mask-2)" points="-12 259.59 283 259.59 283 258.09 -12 258.09"></polygon>
                        <polygon id="Fill-73" fill="#DADADA" mask="url(#mask-2)" points="-12 263.281 283 263.281 283 261.781 -12 261.781"></polygon>
                        <polygon id="Fill-74" fill="#DADADA" mask="url(#mask-2)" points="-12 266.973 283 266.973 283 265.473 -12 265.473"></polygon>
                        <polygon id="Fill-75" fill="#DADADA" mask="url(#mask-2)" points="-12 270.664 283 270.664 283 269.164 -12 269.164"></polygon>
                        <polygon id="Fill-76" fill="#DADADA" mask="url(#mask-2)" points="-12 274.356 283 274.356 283 272.856 -12 272.856"></polygon>
                        <polygon id="Fill-77" fill="#DADADA" mask="url(#mask-2)" points="-12 278.047 283 278.047 283 276.547 -12 276.547"></polygon>
                    </g>
                    <rect id="Rectangle-19" fill="#2175FF" x="96" y="127" width="192" height="51"></rect>
                    <text font-family="Helvetica" font-size="36" font-weight="normal" fill="#FFFFFF">
                        <tspan x="130" y="166">Weimar</tspan>
                    </text>
                </g>
            </g>
        </g>
    </g>
</svg>